<svg xmlns="http://www.w3.org/2000/svg" width="20" height="20" viewBox="0 0 20 20">
  <g id="&#x4F01;&#x4E1A;&#x6388;&#x6743;" transform="translate(-207 -4988)">
    <g id="&#x5DE5;&#x4F5C;&#x53F0;" transform="translate(-311.578 2971.678)">
      <rect id="&#x77E9;&#x5F62;_13790" width="20" height="20" transform="translate(518.578 2016.323)" fill="none"></rect>
    </g>
    <g id="&#x7EC4;_8370">
      <path id="&#x4F01;&#x4E1A;&#x6743;&#x9650;&#x67E5;&#x8BE2;" d="M26.458,40.068V29.483a.82.82,0,0,1,.817-.817h5.885V26.417a.82.82,0,0,1,.817-.817h5.436a.82.82,0,0,1,.817.817v8.95a2.71,2.71,0,0,0-.531-1.144,6.783,6.783,0,0,0-.736-.777v-6.58h-4.5v1.8h2.125a.82.82,0,0,1,.817.817v3.27a4.691,4.691,0,0,0-1.267-.163v-2.7H27.725V40.027h4.618a.613.613,0,1,1,0,1.226h-6.13a.613.613,0,1,1,0-1.226h.245Zm8.174,1.471a.884.884,0,0,1-.858-.94V37.983a.884.884,0,0,1,.858-.94H34.8v-.858a2.251,2.251,0,1,1,4.5-.163.532.532,0,0,1-.2.531.5.5,0,0,1-.531.041.567.567,0,0,1-.286-.49,1.227,1.227,0,1,0-2.452.082v.858H39.5a.884.884,0,0,1,.858.94V40.6a.884.884,0,0,1-.858.94Zm.736-3.515a.629.629,0,0,0-.613.613v1.226a.629.629,0,0,0,.613.613H38.76a.629.629,0,0,0,.613-.613V38.637a.629.629,0,0,0-.613-.613Z" transform="translate(183.4 4964.4)" fill="currentColor" stroke="#8996af" stroke-width="0.4"></path>
      <rect id="&#x77E9;&#x5F62;_13800" width="6" height="1.3" rx="0.65" transform="translate(212 4996)" fill="currentColor"></rect>
      <rect id="&#x77E9;&#x5F62;_13801" width="5" height="1.3" rx="0.65" transform="translate(212 4998.5)" fill="currentColor"></rect>
      <rect id="&#x77E9;&#x5F62;_13802" width="3" height="1.3" rx="0.65" transform="translate(212 5001.5)" fill="currentColor"></rect>
    </g>
  </g>
</svg>