<svg width="20" height="20" viewBox="0 0 20 20" fill="none" xmlns="http://www.w3.org/2000/svg">
<g clip-path="url(#clip0_1408_17978)">
<path d="M20 0H0V20H20V0Z" fill="white" fill-opacity="0.01"/>
<path d="M4.10752 13.6489C2.59949 14.1013 1.66675 14.7263 1.66675 15.4167C1.66675 16.7974 5.39771 17.9167 10.0001 17.9167C14.6025 17.9167 18.3334 16.7974 18.3334 15.4167C18.3334 14.7263 17.4007 14.1013 15.8926 13.6489" stroke="#666666" stroke-width="1.5" stroke-linecap="round" stroke-linejoin="round"/>
<path d="M9.99992 14.5833C9.99992 14.5833 15.4166 11.0433 15.4166 6.95071C15.4166 4.03239 12.9915 1.66663 9.99992 1.66663C7.00838 1.66663 4.58325 4.03239 4.58325 6.95071C4.58325 11.0433 9.99992 14.5833 9.99992 14.5833Z" stroke="#666666" stroke-width="1.5" stroke-linejoin="round"/>
<path d="M10.0001 9.16667C11.1507 9.16667 12.0834 8.23392 12.0834 7.08333C12.0834 5.93275 11.1507 5 10.0001 5C8.8495 5 7.91675 5.93275 7.91675 7.08333C7.91675 8.23392 8.8495 9.16667 10.0001 9.16667Z" stroke="#666666" stroke-width="1.5" stroke-linejoin="round"/>
</g>
<defs>
<clipPath id="clip0_1408_17978">
<rect width="20" height="20" fill="white"/>
</clipPath>
</defs>
</svg>
