<svg xmlns="http://www.w3.org/2000/svg" width="20" height="20" viewBox="0 0 20 20">
  <g id="&#x9879;&#x76EE;&#x7BA1;&#x7406;" transform="translate(-724 -67)">
    <rect id="&#x77E9;&#x5F62;_13808" width="20" height="20" transform="translate(724 67)" fill="none"></rect>
    <g id="&#x7EC4;_8379" transform="translate(661.65 4.65)">
      <path id="&#x8DEF;&#x5F84;_3257" d="M76.308,208h-10.6A1.708,1.708,0,0,0,64,209.707v10.6a1.708,1.708,0,0,0,1.707,1.707h10.6a1.708,1.708,0,0,0,1.707-1.707v-10.6A1.708,1.708,0,0,0,76.308,208Zm-10.034,1.342h9.468a.932.932,0,0,1,.932.932v1.752H65.342v-1.752A.932.932,0,0,1,66.274,209.342Zm9.468,11.332H66.274a.932.932,0,0,1-.932-.932v-6.374H76.674v6.374A.932.932,0,0,1,75.742,220.674Z" transform="translate(0 -141.316)" fill="currentColor"></path>
      <path id="&#x8DEF;&#x5F84;_3258" d="M220.308,64H208.671a.671.671,0,0,0,0,1.342h11.071a.932.932,0,0,1,.932.932V77.344a.671.671,0,0,0,1.342,0V65.707A1.708,1.708,0,0,0,220.308,64Z" transform="translate(-141.316)" fill="currentColor"></path>
      <path id="&#x8DEF;&#x5F84;_3259" d="M352,656m.671,0h4.622a.593.593,0,0,1,.671.671h0a.593.593,0,0,1-.671.671h-4.622a.593.593,0,0,1-.671-.671h0A.593.593,0,0,1,352.671,656Z" transform="translate(-282.632 -580.967)" fill="currentColor"></path>
      <path id="&#x8DEF;&#x5F84;_3260" d="M208.671,656.671m-.671,0a.671.671,0,1,0,.671-.671A.671.671,0,0,0,208,656.671Z" transform="translate(-141.316 -580.967)" fill="currentColor"></path>
    </g>
  </g>
</svg>