<svg xmlns="http://www.w3.org/2000/svg" width="20" height="20" viewBox="0 0 20 20">
  <g id="&#x7CFB;&#x7EDF;&#x7BA1;&#x7406;" transform="translate(-547.745 -2016.323)">
    <path id="&#x8DEF;&#x5F84;_3212" d="M560.646,2026.966" fill="#3370ff"></path>
    <path id="&#x8DEF;&#x5F84;_3213" d="M560.646,2026.966" fill="#3370ff"></path>
    <rect id="&#x77E9;&#x5F62;_13791" width="20" height="20" transform="translate(547.745 2016.323)" fill="none"></rect>
    <g id="&#x7EC4;_8343">
      <path id="&#x8DEF;&#x5F84;_3214" d="M565.308,2025.414h-2.734a2.66,2.66,0,0,0-4.995,0h-7.4a.912.912,0,0,0,0,1.824h7.389a2.661,2.661,0,0,0,2.492,1.746,2.709,2.709,0,0,0,.67-.085,2.649,2.649,0,0,0,1.832-1.661H565.3a.912.912,0,0,0,.008-1.824Zm-4.407.911a.852.852,0,0,1-.833.848h0a.863.863,0,0,1-.6-.238.848.848,0,0,1,1.179-1.22A.853.853,0,0,1,560.9,2026.325Z" fill="currentColor"></path>
      <path id="&#x8DEF;&#x5F84;_3215" d="M565.308,2031.226h-7.391a2.66,2.66,0,0,0-4.994,0h-2.74a.912.912,0,0,0,0,1.824h2.734a2.656,2.656,0,0,0,2.5,1.742,2.686,2.686,0,0,0,.669-.086,2.653,2.653,0,0,0,1.827-1.656H565.3a.913.913,0,0,0,.646-1.556A.905.905,0,0,0,565.308,2031.226Zm-9.063.915a.852.852,0,0,1-.832.848H555.4a.853.853,0,0,1-.848-.833.84.84,0,0,1,.239-.6.848.848,0,0,1,1.458.589Z" fill="currentColor"></path>
      <path id="&#x8DEF;&#x5F84;_3216" d="M550.182,2021.425h2.734a2.656,2.656,0,0,0,2.5,1.742,2.688,2.688,0,0,0,.67-.086,2.653,2.653,0,0,0,1.827-1.656h7.39a.912.912,0,1,0,0-1.824h-7.385a2.662,2.662,0,0,0-5,0h-2.737a.908.908,0,0,0-.913.91.913.913,0,0,0,.912.914Zm0-.333Zm5.24-1.54.017.11a.842.842,0,1,1-.015,0Z" fill="currentColor"></path>
    </g>
  </g>
</svg>